<svg xmlns="http://www.w3.org/2000/svg" xmlns:xlink="http://www.w3.org/1999/xlink" width="500" zoomAndPan="magnify" viewBox="0 0 375 374.999991" height="500" preserveAspectRatio="xMidYMid meet" version="1.0"><defs><clipPath id="3dd3ccad0b"><path d="M 144 337 L 231 337 L 231 371.25 L 144 371.25 Z M 144 337 " clip-rule="nonzero"/></clipPath><clipPath id="817793f520"><path d="M 18.75 0 L 356.25 0 L 356.25 321 L 18.75 321 Z M 18.75 0 " clip-rule="nonzero"/></clipPath></defs><g clip-path="url(#3dd3ccad0b)"><path fill="#ffffff" d="M 229.921875 338.929688 C 229.09375 337.730469 227.441406 336.902344 226.390625 337.054688 L 148.835938 337.503906 C 148.835938 337.503906 146.054688 338.253906 145.304688 339.457031 C 144.550781 340.660156 144.402344 342.164062 145.003906 343.441406 C 152.367188 360.347656 169.125 371.246094 187.539062 371.246094 C 206.25 371.246094 223.007812 360.125 230.296875 342.914062 C 230.824219 341.5625 230.675781 340.058594 229.921875 338.929688 Z M 229.921875 338.929688 " fill-opacity="1" fill-rule="nonzero"/></g><g clip-path="url(#817793f520)"><path fill="#ffffff" d="M 353.242188 297.296875 L 305.675781 257.617188 L 305.675781 151.882812 C 305.675781 98.300781 269.753906 52.984375 220.753906 38.554688 C 220.980469 36.976562 221.28125 35.398438 221.28125 33.746094 C 221.28125 15.109375 206.175781 0.00390625 187.539062 0.00390625 C 168.898438 0.00390625 153.796875 15.109375 153.796875 33.746094 C 153.796875 35.398438 154.097656 36.976562 154.320312 38.554688 C 105.324219 52.984375 69.402344 98.226562 69.402344 151.882812 L 69.402344 257.617188 L 21.757812 297.296875 C 19.800781 298.875 18.75 301.28125 18.75 303.761719 L 18.75 312.179688 C 18.75 316.835938 22.507812 320.59375 27.167969 320.59375 L 347.832031 320.59375 C 352.492188 320.59375 356.25 316.835938 356.25 312.179688 L 356.25 303.761719 C 356.25 301.28125 355.121094 298.875 353.242188 297.296875 Z M 170.777344 35.097656 C 170.777344 34.648438 170.628906 34.195312 170.628906 33.746094 C 170.628906 24.425781 178.21875 16.835938 187.539062 16.835938 C 196.855469 16.835938 204.371094 24.425781 204.371094 33.746094 C 204.371094 34.195312 204.296875 34.648438 204.222656 35.097656 C 198.734375 34.347656 193.175781 33.746094 187.460938 33.746094 C 181.75 33.746094 176.265625 34.273438 170.777344 35.097656 Z M 170.777344 35.097656 " fill-opacity="1" fill-rule="nonzero"/></g></svg>